
        <svg xmlns="http://www.w3.org/2000/svg" xmlns:xlink="http://www.w3.org/1999/xlink" version="1.1" width="3200" height="2209.18310388729" viewBox="0 0 3200 2209.18310388729">
			
			<g transform="scale(10) translate(10, 10)">
				<defs id="SvgjsDefs1011"/><g id="SvgjsG1012" featureKey="symbolFeature-0" transform="matrix(1.3678206296595798,0,0,1.3678206296595798,81.38532876920041,-13.992804415278908)" fill="#fff"><g xmlns="http://www.w3.org/2000/svg"><path fill-rule="evenodd" clip-rule="evenodd" d="M80.11,49.695c0.003,5.951,1.481,10.771,3.303,10.771   c1.823,0,3.302-4.824,3.305-10.768c-0.003-5.951-1.479-10.773-3.303-10.773C81.591,38.926,80.107,43.748,80.11,49.695z"/><path fill-rule="evenodd" clip-rule="evenodd" d="M39.138,14.154c-15.075,6.26-25.529,19.93-25.529,35.779   c-0.004,15.852,10.454,29.52,25.536,35.777C30.504,78.232,24.764,65,24.764,49.934S30.508,21.637,39.138,14.154z"/><path fill-rule="evenodd" clip-rule="evenodd" d="M49.349,10.23c-7.066,0-12.803,17.854-12.803,39.857   c0,22.016,5.736,39.859,12.808,39.861c3.491-0.002,6.66-4.367,8.969-11.438c1.954,4.756,4.414,7.598,7.084,7.598   c6.367,0.002,11.532-16.066,11.527-35.883c0.005-19.816-5.156-35.887-11.521-35.879c-2.651,0-5.093,2.797-7.041,7.484   C56.057,14.668,52.871,10.234,49.349,10.23z M75.225,50.227c0.005,11.121-2.764,20.143-6.174,20.143   c-3.412,0-6.176-9.023-6.176-20.139c0-11.127,2.764-20.146,6.176-20.15C72.465,30.084,75.229,39.102,75.225,50.227z M57.792,23.318   c-2.395,6.576-3.907,16.191-3.907,26.908c-0.001,10.623,1.484,20.166,3.841,26.736c-1.15,1.559-2.418,2.424-3.748,2.424   c-5.202-0.004-9.414-13.117-9.414-29.299c0-16.174,4.212-29.293,9.407-29.293C55.333,20.797,56.626,21.701,57.792,23.318z"/></g></g><g id="SvgjsG1013" featureKey="nameFeature-0" transform="matrix(1.823486458845279,0,0,1.823486458845279,-4.376365066611586,110.18162725724943)" fill="#fff"><path d="M14.68 31 l4.48 9 l-3.44 0 c-0.28 0 -0.52 -0.16 -0.64 -0.4 l-3.92 -7.88 l-4.84 0 c-0.24 0 -0.44 0.2 -0.44 0.44 l0 7.4 c0 0.24 -0.2 0.44 -0.44 0.44 l-3.04 0 l0 -29.68 l3.04 0 c0.24 0 0.44 0.2 0.44 0.44 l0 18.36 c0.2 -0.4 0.6 -0.68 1.08 -0.68 l4.92 0 c1.32 0 2.36 -1.08 2.36 -2.4 l0 -5.6 c0 -0.24 0.2 -0.44 0.44 -0.44 l3.04 0 l0 5.88 c0 2.2 -1.2 4.12 -3.04 5.12 z M33.2 40.28 l-5.28 0 c-3.24 0 -5.84 -2.6 -5.84 -5.84 l0 -8.88 c0 -3.2 2.6 -5.84 5.84 -5.84 l5.28 0 c3.24 0 5.88 2.64 5.88 5.84 l0 8.88 c0 3.24 -2.64 5.84 -5.88 5.84 z M27.92 23.04 c-1.32 0 -2.36 1.08 -2.36 2.36 l0 9.2 c0 1.32 1.04 2.4 2.36 2.4 l5.28 0 c1.32 0 2.4 -1.08 2.4 -2.4 l0 -9.2 c0 -1.28 -1.08 -2.36 -2.4 -2.36 l-5.28 0 z M56.88 44.08 l0 -5.68 c-0.4 0.72 -1.48 1.6 -2.76 1.6 l-4.8 0 c-3.72 0 -5.6 -2.64 -5.6 -5.84 l0 -8.52 c0 -3.2 2.04 -5.68 5.84 -5.68 l9.52 0 c0.72 0 1.28 0.6 1.28 1.28 l0 22.68 c0 3.24 -2.64 5.84 -5.84 5.84 l-9.52 0 l0 -2.88 c0 -0.24 0.2 -0.44 0.44 -0.44 l9.08 0 c1.28 0 2.36 -1.04 2.36 -2.36 z M47.2 25.64 l0 8.68 c0 1.28 0.52 2.36 2.2 2.36 l5.52 0 c1.04 -0.16 1.88 -1 1.96 -2.04 l0 -10.92 c0 -0.24 -0.2 -0.44 -0.44 -0.44 l-6.88 0 c-1.84 0 -2.36 1.08 -2.36 2.36 z M86.2 20 l3.04 0 l0 17.4 c0 1.44 -1.16 2.6 -2.6 2.6 l-15.72 0 c-3.24 0 -5.84 -2.6 -5.84 -5.84 l0 -14.16 l3.04 0 c0.24 0 0.44 0.16 0.44 0.4 l0 13.92 c0 1.32 1.04 2.36 2.36 2.36 l5.2 0 c-0.4 -0.2 -0.68 -0.64 -0.68 -1.12 l0 -15.56 l3.04 0 c0.24 0 0.44 0.16 0.44 0.4 l0 15.84 c0 0.24 0.16 0.44 0.4 0.44 l6.04 0 c0.24 0 0.4 -0.2 0.4 -0.44 l0 0.04 l0 -15.88 c0 -0.24 0.2 -0.4 0.44 -0.4 z M99.88 40 c-3.24 0 -5.84 -2.6 -5.84 -5.84 l0 -8.48 c0 -3.72 2.6 -5.68 5.84 -5.68 l5.36 0 c3.24 0 5.84 1.96 5.84 5.68 l0 4.6 c0 0.68 -0.08 1.24 -1.04 1.24 l-10.96 0 c-0.64 0 -1.2 -0.28 -1.56 -0.76 l0 3.56 c0 1.32 1.04 2.36 2.36 2.36 l9.92 0 c0.24 0 0.44 0.2 0.44 0.44 l0 2.88 l-10.36 0 z M105.36 23.28 l-5.48 0 c-1.32 0 -2.36 0.76 -2.36 2.36 l0 2.16 c0 0.24 0.16 0.4 0.4 0.44 l9.32 0 c0.24 0 0.44 -0.2 0.44 -0.44 l0 -2.16 c0 -1.6 -0.76 -2.36 -2.32 -2.36 z M122.16 20 l4.64 0 l0 2.88 c0 0.24 -0.2 0.44 -0.44 0.44 l-5 0 c-1.08 0 -1.84 0.84 -1.92 1.8 l0 14.88 l-3.04 0 c-0.24 0 -0.44 -0.2 -0.44 -0.44 l0 -19.56 l3.04 0 c0.24 0 0.44 0.16 0.44 0.4 l0 0.88 c0.48 -0.68 1.48 -1.28 2.72 -1.28 z M142.72 31 l4.48 9 l-3.44 0 c-0.28 0 -0.52 -0.16 -0.64 -0.4 l-3.92 -7.88 l-4.84 0 c-0.24 0 -0.44 0.2 -0.44 0.44 l0 7.4 c0 0.24 -0.2 0.44 -0.44 0.44 l-3.04 0 l0 -29.68 l3.04 0 c0.24 0 0.44 0.2 0.44 0.44 l0 18.36 c0.2 -0.4 0.6 -0.68 1.08 -0.68 l4.92 0 c1.32 0 2.36 -1.08 2.36 -2.4 l0 -5.6 c0 -0.24 0.2 -0.44 0.44 -0.44 l3.04 0 l0 5.88 c0 2.2 -1.2 4.12 -3.04 5.12 z M150.76 29.28 c-0.64 -0.12 -1.12 -0.68 -1.12 -1.32 l0 -2.68 c0 -3.24 2.24 -5.28 5.48 -5.28 l10.96 0 l0 2.84 c0 0.24 -0.2 0.44 -0.44 0.44 l-10.52 0 c-1.32 0 -2 0.64 -2 1.96 l0 1.16 c0 0.2 0.16 0.36 0.36 0.44 l12.36 2.92 c0.64 0.12 1.08 0.68 1.08 1.32 l0 3.56 c0 3.48 -2.48 5.36 -5.72 5.36 l-11.32 0 l0 -2.84 c0 -0.24 0.2 -0.44 0.44 -0.44 l10.88 0 c1.32 0 2.48 -0.76 2.48 -2.08 l0 -1.88 c0 -0.2 -0.16 -0.36 -0.36 -0.4 z"/></g>
			</g>
		</svg>
	